<?xml version="1.0" standalone="no"?>
<!DOCTYPE svg PUBLIC "-//W3C//DTD SVG 20010904//EN"
 "http://www.w3.org/TR/2001/REC-SVG-20010904/DTD/svg10.dtd">
<svg version="1.0" xmlns="http://www.w3.org/2000/svg"
 width="815.000000pt" height="815.000000pt" viewBox="0 0 815.000000 815.000000"
 preserveAspectRatio="xMidYMid meet">
<metadata>
Created by potrace 1.11, written by Peter Selinger 2001-2013
</metadata>
<g transform="translate(0.000000,815.000000) scale(0.100000,-0.100000)"
fill="#000000" stroke="none">
<path d="M3850 7576 c-36 -7 -92 -26 -125 -44 -52 -28 -66 -42 -103 -105 -60
-99 -76 -166 -70 -297 3 -60 1 -115 -5 -127 -18 -40 36 -146 79 -154 19 -4 68
-85 59 -99 -2 -4 -44 -10 -92 -13 -48 -4 -101 -11 -118 -15 l-30 -9 33 -7 c29
-7 32 -11 32 -47 0 -50 -17 -51 -67 -2 -85 83 -142 105 -180 71 -38 -33 -85
-37 -333 -33 -181 3 -259 8 -300 20 -30 8 -77 15 -105 15 -28 0 -95 12 -150
26 -73 19 -116 24 -158 21 -38 -4 -74 0 -102 10 -38 12 -48 22 -68 66 -24 49
-26 51 -70 53 -33 2 -50 -2 -65 -17 -12 -10 -28 -19 -37 -19 -9 0 -18 -6 -21
-14 -4 -10 -15 -11 -47 -5 -23 4 -116 13 -207 19 -253 18 -527 75 -605 126
-13 8 -27 29 -31 47 -10 48 -84 165 -108 171 -12 3 -55 37 -96 76 -75 71 -110
86 -128 54 -11 -20 0 -76 23 -110 9 -14 32 -35 51 -46 45 -26 43 -43 -5 -56
-45 -11 -110 -8 -257 14 -142 20 -171 19 -185 -7 -8 -15 -13 -18 -18 -10 -6 9
-14 7 -31 -7 -26 -21 -21 -62 8 -62 10 0 5 -6 -13 -16 -36 -18 -59 -38 -32
-29 12 5 17 2 17 -9 0 -10 15 -23 34 -31 19 -8 51 -26 71 -40 21 -13 52 -27
71 -31 19 -3 34 -10 34 -15 0 -5 7 -9 16 -9 8 0 25 -5 37 -12 12 -7 28 -13 36
-14 8 -2 42 -16 76 -33 60 -30 201 -59 230 -47 15 5 92 -19 79 -26 -5 -3 -3
-3 4 -1 13 3 60 -11 292 -87 348 -114 405 -129 598 -154 78 -10 108 -18 125
-34 12 -12 52 -29 87 -38 36 -9 78 -23 94 -31 19 -10 46 -14 78 -11 40 4 51 2
62 -14 16 -23 81 -44 162 -53 92 -10 102 -13 116 -43 30 -61 141 -104 350
-136 102 -15 218 -54 218 -72 0 -16 -90 -674 -96 -699 -5 -24 -43 -297 -89
-655 -36 -277 -42 -368 -25 -401 19 -35 105 -70 350 -141 43 -13 45 -15 48
-55 2 -32 -2 -48 -17 -65 -15 -15 -21 -35 -21 -66 0 -24 -6 -58 -14 -75 -15
-36 -39 -186 -61 -392 -9 -77 -20 -156 -25 -176 -5 -19 -9 -60 -8 -90 5 -117
-14 -616 -24 -642 -7 -18 -7 -31 0 -40 6 -8 4 -44 -9 -112 -16 -92 -46 -190
-130 -430 -18 -49 -42 -128 -54 -175 -19 -74 -25 -85 -44 -84 -12 0 -21 -6
-21 -13 0 -10 7 -12 21 -8 20 7 21 5 14 -36 -16 -92 -6 -87 -162 -88 -160 -2
-210 -8 -217 -27 -3 -7 -2 -15 2 -17 4 -2 61 -5 127 -5 176 -1 232 -4 213 -9
-22 -5 -23 -19 -4 -26 9 -4 12 -14 9 -25 -4 -19 -15 -20 -231 -19 -125 0 -219
2 -209 4 9 3 17 9 17 15 0 6 -8 7 -17 3 -56 -22 -87 -25 -193 -18 -63 4 -96 9
-72 11 23 2 42 8 42 13 0 6 -17 9 -37 8 -44 -3 -79 13 -88 40 -4 12 -12 18
-21 14 -9 -3 -14 1 -14 12 0 12 5 15 18 10 9 -4 24 -7 32 -6 8 1 36 2 63 3 26
0 47 4 47 9 0 5 -18 9 -40 9 -22 0 -40 4 -40 9 0 16 87 24 305 31 l60 2 -43
14 c-29 9 -78 12 -145 10 -60 -3 -94 -1 -82 4 11 5 30 9 43 9 12 1 22 6 22 12
0 7 -11 8 -29 4 -16 -3 -31 -3 -34 2 -3 4 -88 7 -189 7 -126 -1 -175 2 -158 8
14 6 58 10 98 9 39 0 72 4 72 9 0 5 13 4 31 -2 16 -6 33 -7 37 -3 4 4 1 10 -5
12 -21 8 -14 26 7 20 11 -3 18 -1 15 4 -3 4 -47 9 -98 9 -51 0 -119 4 -152 9
l-60 8 75 3 c41 2 87 2 103 1 15 -1 27 2 27 7 0 5 21 8 48 7 45 -2 45 -2 7 4
-70 11 -20 24 112 31 122 6 141 10 128 29 -8 14 -35 14 -35 1 0 -15 -77 -12
-83 3 -4 9 -7 9 -15 -1 -6 -10 -26 -11 -75 -6 -37 4 -64 10 -62 15 3 4 39 10
80 14 64 6 75 10 75 26 0 12 10 21 28 25 53 12 46 14 -30 10 -76 -4 -78 -4
-78 19 0 17 -8 24 -32 31 l-33 8 33 3 c36 5 44 22 10 25 -13 1 -32 3 -43 4
-11 1 -26 2 -32 3 -7 1 -13 5 -13 10 0 12 62 23 135 24 46 0 50 1 18 4 -24 2
-43 8 -43 12 0 12 -72 24 -79 13 -8 -11 -93 -3 -85 9 7 12 131 11 155 -1 13
-8 24 -8 37 0 15 9 14 10 -5 5 -14 -4 -23 -2 -23 4 0 6 -11 11 -25 11 -14 0
-25 5 -25 10 0 6 12 10 28 10 51 0 102 13 102 25 0 9 -13 10 -47 4 -48 -8
-127 -11 -108 -4 6 2 43 9 83 15 77 13 92 31 32 40 -37 6 -54 30 -21 30 37 0
31 17 -12 34 -38 15 -40 18 -24 30 21 16 22 26 3 26 -10 0 -14 10 -12 35 4 46
16 58 16 17 0 -29 3 -32 29 -32 17 0 33 5 36 10 4 6 -7 10 -24 10 -25 0 -31 4
-31 21 0 19 4 21 31 15 17 -3 35 -6 40 -6 5 0 9 -7 9 -15 0 -9 6 -12 15 -9 24
10 17 24 -15 30 -18 4 -30 13 -30 22 0 9 -10 26 -22 39 l-21 23 36 0 c36 0 37
1 37 40 l0 40 -55 0 -55 0 0 40 c0 29 4 40 15 40 11 0 15 11 15 40 0 33 -3 40
-20 40 -19 0 -20 7 -20 120 0 113 1 120 20 120 17 0 20 7 20 40 l0 40 -40 0
-40 0 0 -40 c0 -32 -4 -40 -19 -40 -16 0 -19 12 -23 108 -8 149 -1 212 23 212
15 0 19 8 19 40 0 22 5 40 10 40 6 0 10 -18 10 -40 0 -33 3 -40 20 -40 17 0
20 7 20 40 0 22 5 40 10 40 6 0 10 18 10 40 l0 40 -40 0 -40 0 0 120 0 120
-60 0 -60 0 0 80 c0 73 2 80 20 80 17 0 20 7 20 40 0 33 -3 40 -20 40 -17 0
-20 7 -20 40 l0 40 60 0 c47 0 60 3 60 15 0 8 5 15 10 15 6 0 10 11 10 25 0
14 -4 25 -10 25 -5 0 -10 18 -10 40 0 37 -2 40 -28 40 -15 0 -33 5 -40 12 -9
9 -12 9 -12 0 0 -7 -7 -12 -15 -12 -11 0 -15 11 -15 40 0 29 4 40 15 40 11 0
15 11 15 40 0 22 4 40 9 40 5 0 4 11 -2 25 -10 20 -19 25 -49 25 -34 0 -38 -3
-38 -25 0 -16 -6 -25 -15 -25 -11 0 -15 11 -15 40 0 29 4 40 15 40 11 0 15 11
15 40 0 38 -2 40 -30 40 -28 0 -30 2 -30 40 0 22 -4 40 -10 40 -5 0 -10 -7
-10 -15 0 -21 -30 -18 -57 4 -24 20 -31 65 -13 76 6 3 10 26 10 51 0 24 -4 44
-10 44 -5 0 -10 -7 -10 -15 0 -11 -11 -15 -40 -15 -28 0 -40 4 -40 14 0 8 4
16 9 18 5 2 3 12 -5 23 -14 19 -15 19 -20 -3 -5 -16 -14 -22 -35 -22 -20 0
-29 -5 -29 -17 0 -15 -1 -15 -18 0 -10 10 -24 17 -30 17 -7 0 -12 16 -12 40 0
22 -4 40 -10 40 -5 0 -10 18 -10 40 0 38 -2 40 -30 40 -28 0 -30 2 -30 39 0
30 4 40 17 43 16 3 15 6 -7 28 l-25 25 -5 -60 -5 -60 -32 33 c-17 17 -40 32
-52 32 -18 0 -21 6 -21 40 0 28 -4 40 -14 40 -11 0 -16 14 -18 48 l-3 47 -87
3 -88 3 0 29 c0 15 5 30 12 32 9 3 9 6 0 12 -7 4 -12 2 -12 -3 0 -6 -18 -11
-40 -11 -29 0 -40 -4 -40 -15 0 -8 -7 -15 -15 -15 -10 0 -16 16 -21 51 -7 51
-28 75 -44 49 -5 -8 -9 -9 -14 -1 -4 6 -2 11 4 11 6 0 10 8 8 17 -3 19 -51 31
-120 32 -29 1 -38 5 -38 19 0 13 -9 17 -40 17 -25 0 -40 -5 -40 -12 0 -15 -7
-15 -35 -3 -11 5 -14 9 -7 9 7 1 12 16 12 41 0 22 4 40 9 40 5 0 0 18 -10 40
-18 36 -49 55 -49 30 0 -5 -18 -10 -39 -10 -33 0 -40 -4 -44 -22 -4 -21 -4
-21 -6 3 0 14 -6 30 -11 35 -8 8 -6 15 5 24 24 20 20 60 -7 60 -12 0 -30 7
-40 17 -17 15 -18 15 -18 0 0 -13 -10 -17 -44 -17 -39 0 -45 3 -56 30 -16 38
-24 38 -41 -2 -12 -28 -14 -30 -20 -13 -20 63 -21 65 -50 65 -26 0 -29 4 -29
30 0 28 -2 30 -40 30 -22 0 -40 5 -40 10 0 6 -15 11 -32 11 -24 1 -27 3 -10 6
18 4 22 11 22 39 0 19 5 34 10 34 6 0 10 7 10 15 0 11 -11 15 -40 15 l-40 0 0
-2970 0 -2970 4075 0 4075 0 0 113 0 113 -267 67 c-148 37 -299 71 -338 77
-89 13 -221 17 -305 8 -143 -15 -525 -20 -605 -9 -79 12 -262 23 -360 23 -241
0 -275 -2 -275 -17 0 -20 -19 -19 -51 3 -15 9 -44 17 -67 16 -23 0 -41 2 -40
5 2 18 -4 22 -16 12 -16 -14 -56 1 -56 21 0 6 11 3 25 -6 14 -9 25 -12 25 -6
0 6 -12 16 -26 22 -20 9 -27 9 -34 -2 -10 -17 -102 -7 -136 15 -13 8 -34 15
-46 16 -21 0 -21 1 -4 8 17 6 16 9 -10 18 -16 6 -57 14 -92 16 -34 3 -74 12
-87 21 -13 9 -32 16 -41 16 -9 0 -27 9 -41 20 -15 12 -43 21 -67 22 l-41 1 45
7 45 7 -44 1 c-30 2 -42 6 -38 14 2 7 1 22 -4 33 -6 16 -8 13 -8 -15 -1 -26
-4 -31 -11 -20 -5 8 -10 26 -10 39 0 30 -10 22 -14 -10 -2 -13 -6 -31 -9 -39
-3 -8 -8 -53 -12 -99 -5 -72 -3 -86 12 -103 17 -19 17 -20 0 -32 -9 -7 -63
-16 -119 -20 -238 -15 -310 -27 -378 -60 -59 -29 -68 -31 -95 -20 -17 7 -61
15 -100 19 -38 4 -87 11 -108 16 -36 10 -102 15 -297 24 -613 29 -876 43 -996
54 -13 1 -30 99 -26 145 1 16 -3 34 -9 42 -8 10 -8 23 1 50 8 23 10 59 5 99
-9 83 7 145 35 138 12 -3 20 0 20 7 0 7 -7 10 -15 7 -18 -7 -29 8 -18 26 4 6
9 23 11 37 3 26 26 104 44 153 6 16 18 27 30 27 10 0 16 5 13 10 -4 6 -11 8
-16 5 -16 -11 -10 22 21 103 l31 79 72 9 72 8 -66 6 c-63 5 -66 6 -58 27 7 20
13 21 71 17 35 -3 73 -7 85 -9 12 -3 24 -1 27 4 7 11 302 26 450 22 92 -3 117
-1 111 9 -6 9 -69 12 -269 9 -143 -1 -305 -2 -359 -1 l-98 2 17 33 c10 17 19
26 21 20 3 -7 9 -13 14 -13 4 0 6 7 2 16 -5 14 -3 15 15 5 14 -8 129 -11 369
-9 215 0 312 4 253 8 -53 3 -100 9 -106 13 -6 3 -93 9 -195 12 -300 9 -347 14
-342 33 3 14 22 18 119 20 78 3 114 0 114 -7 0 -14 99 -15 120 -1 13 8 12 10
-2 10 -10 0 -18 4 -18 9 0 6 -19 12 -42 14 -29 2 -19 4 32 6 41 1 86 4 100 6
127 15 150 19 150 27 0 5 -41 8 -92 7 -51 -1 -173 2 -271 6 l-179 8 6 26 c3
14 19 109 36 211 34 202 50 254 109 340 51 75 80 131 105 209 12 35 28 67 36
71 77 35 74 31 86 110 6 42 24 116 39 165 36 119 145 414 199 540 l43 100 39
-2 c21 -2 45 -5 52 -8 7 -2 29 -40 49 -82 85 -185 153 -322 164 -329 7 -4 9 0
5 12 -10 34 40 167 71 187 6 4 14 22 18 40 18 94 27 117 50 117 16 0 27 11 40
40 10 22 22 40 27 40 4 0 8 11 8 24 0 16 7 27 21 31 13 5 18 12 14 22 -7 20
22 53 47 53 11 0 23 11 28 26 14 35 12 42 -5 20 -8 -11 -17 -17 -20 -15 -2 3
16 25 40 49 25 24 45 41 45 37 0 -3 -12 -18 -27 -33 l-28 -27 35 21 c19 12 34
27 32 33 -4 16 27 48 68 70 33 17 33 18 10 19 -22 1 -20 4 18 23 l43 21 -7 61
c-8 77 -16 110 -55 224 l-33 94 30 24 c39 31 65 38 75 22 5 -8 16 -40 26 -73
10 -32 23 -60 30 -63 26 -10 177 53 208 87 26 29 29 143 16 655 -7 306 -19
517 -41 775 -16 195 -30 374 -30 397 l0 41 68 22 c37 12 148 53 247 90 234 87
328 117 394 125 30 3 70 13 89 21 23 9 73 14 151 15 64 0 143 1 176 1 33 1 86
-2 117 -6 55 -8 58 -7 88 23 31 31 32 31 238 52 114 12 235 21 270 21 35 0 82
6 105 14 32 11 69 13 167 8 124 -7 129 -6 228 25 56 18 134 36 174 41 120 14
179 31 176 48 -4 19 -36 29 -98 32 -37 1 -41 3 -23 10 13 5 45 12 73 16 28 4
53 11 56 16 7 12 -15 38 -32 38 -7 0 -24 11 -37 24 -19 18 -33 23 -63 22 -21
-2 -105 -7 -185 -11 l-146 -8 -47 28 c-26 15 -44 30 -41 34 4 3 25 13 48 21
62 23 100 110 48 110 -9 0 -48 -16 -87 -35 -38 -19 -75 -35 -82 -35 -30 0 -74
-34 -113 -86 -55 -74 -82 -85 -246 -91 -128 -6 -133 -5 -133 14 0 28 -97 153
-118 153 -27 0 -42 -20 -42 -57 0 -63 -7 -64 -366 -56 -437 11 -558 10 -575
-3 -8 -6 -41 -17 -74 -24 -58 -13 -77 -14 -155 -11 -19 1 -48 0 -65 0 -16 -1
-45 4 -63 12 -34 14 -43 10 -55 -26 -2 -5 -20 -1 -41 9 -24 11 -49 16 -68 12
-41 -8 -120 15 -126 37 -7 25 -38 30 -182 25 -108 -3 -132 -7 -149 -22 -17
-16 -28 -17 -68 -11 -27 5 -82 8 -123 7 -41 -1 -81 1 -88 6 -17 11 -27 130
-14 164 7 15 20 28 33 30 32 5 59 46 65 103 5 43 3 53 -15 69 -18 16 -21 30
-21 97 0 92 -18 145 -91 266 -58 96 -111 138 -190 153 -61 12 -74 11 -159 -4z
m-3420 -1910 c0 -2 -7 -9 -15 -16 -12 -10 -15 -10 -15 4 0 9 7 16 15 16 8 0
15 -2 15 -4z m770 -531 l0 -55 -40 0 c-29 0 -40 4 -40 15 0 9 9 15 25 15 23 0
25 4 25 40 0 29 4 40 15 40 12 0 15 -13 15 -55z m507 -581 c-3 -3 -12 -4 -19
-1 -8 3 -5 6 6 6 11 1 17 -2 13 -5z m-67 -59 c0 -8 -9 -15 -20 -15 -11 0 -20
7 -20 15 0 8 9 15 20 15 11 0 20 -7 20 -15z m87 -167 c-2 -13 -4 -3 -4 22 0
25 2 35 4 23 2 -13 2 -33 0 -45z m239 -799 c-3 -34 -6 -70 -6 -80 0 -15 -8
-19 -35 -19 -34 0 -35 1 -35 40 0 29 4 40 15 40 11 0 15 11 15 40 0 37 2 40
26 40 27 0 27 0 20 -61z m2475 -122 c-10 -9 -11 -8 -5 6 3 10 9 15 12 12 3 -3
0 -11 -7 -18z m-203 -312 c-3 -3 -9 2 -12 12 -6 14 -5 15 5 6 7 -7 10 -15 7
-18z m-2198 -670 c0 -33 -5 -47 -16 -52 -22 -8 -31 10 -25 54 l5 38 7 -40 c6
-42 9 -36 18 33 3 30 11 8 11 -33z m-70 15 c0 -5 -4 -10 -10 -10 -5 0 -10 5
-10 10 0 6 5 10 10 10 6 0 10 -4 10 -10z m-57 -47 c-7 -2 -19 -2 -25 0 -7 3
-2 5 12 5 14 0 19 -2 13 -5z m101 -98 c17 -13 18 -15 3 -15 -9 0 -17 4 -17 9
0 6 -19 12 -42 14 l-43 4 40 1 c22 1 49 -5 59 -13z m-279 -135 c3 -5 -3 -10
-15 -10 -12 0 -18 5 -15 10 3 6 10 10 15 10 5 0 12 -4 15 -10z m98 -7 c-7 -2
-19 -2 -25 0 -7 3 -2 5 12 5 14 0 19 -2 13 -5z m167 -101 c0 -4 -17 -12 -38
-18 -29 -8 -41 -7 -50 2 -9 10 -4 14 26 17 20 2 43 4 50 5 6 1 12 -2 12 -6z
m-237 -89 c-18 -2 -48 -2 -65 0 -18 2 -4 4 32 4 36 0 50 -2 33 -4z m377 -3
c11 -7 4 -10 -25 -10 -22 0 -47 5 -55 10 -11 7 -4 10 25 10 22 0 47 -5 55 -10z
m-417 -147 c-7 -2 -21 -2 -30 0 -10 3 -4 5 12 5 17 0 24 -2 18 -5z m64 -59
c-3 -3 -12 -4 -19 -1 -8 3 -5 6 6 6 11 1 17 -2 13 -5z m178 -142 c12 -8 14
-32 3 -31 -29 3 -48 13 -48 25 0 15 28 19 45 6z m848 -172 c3 -11 2 -22 -2
-24 -4 -3 -97 -4 -206 -3 -110 0 -186 2 -170 4 17 2 48 11 70 19 31 11 47 13
69 5 15 -6 37 -11 49 -11 18 0 20 2 7 11 -12 9 -11 9 5 3 24 -9 95 -16 78 -8
-29 13 -10 24 41 24 45 0 54 -3 59 -20z m-353 0 c0 -5 -7 -10 -15 -10 -8 0
-15 5 -15 10 0 6 7 10 15 10 8 0 15 -4 15 -10z m-286 -15 c3 -9 19 -16 38 -16
32 -2 32 -2 4 -6 -16 -3 -32 -1 -37 4 -5 5 -33 6 -62 2 -83 -12 -97 -11 -91 6
4 10 10 12 18 6 6 -5 35 -6 64 -4 35 4 49 9 40 14 -10 7 -9 9 3 9 9 0 19 -7
23 -15z m69 8 c-7 -2 -21 -2 -30 0 -10 3 -4 5 12 5 17 0 24 -2 18 -5z m135 -3
c12 0 22 -5 22 -11 0 -8 -18 -10 -60 -6 -35 4 -62 3 -65 -3 -4 -6 -11 -8 -16
-4 -21 12 26 34 61 29 19 -2 45 -5 58 -5z m-435 -17 c-7 -2 -19 -2 -25 0 -7 3
-2 5 12 5 14 0 19 -2 13 -5z m867 -75 l0 -31 -47 6 c-27 4 -86 13 -133 21 -47
9 -116 16 -155 17 -136 2 -23 14 156 16 l179 2 0 -31z m-563 -14 c-11 -11
-135 -15 -142 -5 -4 8 19 11 71 11 43 0 75 -3 71 -6z m263 -4 c0 -13 -187 -13
-194 -1 -4 5 38 9 94 10 58 0 100 -4 100 -9z m-391 -56 c-8 -8 -24 -11 -37 -8
-34 9 -26 20 14 21 31 1 34 -1 23 -13z m143 4 c3 -8 11 -9 24 -3 22 10 236 16
230 6 -3 -3 50 -6 117 -5 67 0 132 -1 145 -4 43 -8 21 -21 -50 -28 l-73 -8 50
-7 c96 -15 95 -15 95 -64 0 -25 -5 -45 -11 -45 -6 0 -7 -5 -2 -12 4 -7 8 -32
9 -56 1 -36 -2 -45 -20 -52 l-21 -9 22 -7 c21 -6 22 -11 18 -73 -6 -86 -13
-117 -37 -162 -26 -50 -44 -64 -85 -64 -27 0 -33 3 -30 17 3 11 0 15 -8 11 -8
-2 -12 -13 -10 -24 4 -18 -3 -19 -138 -17 -87 1 -112 3 -64 5 46 2 75 8 72 13
-4 6 13 10 39 10 28 0 46 5 46 11 0 14 -93 4 -98 -11 -2 -6 -11 -10 -20 -10
-14 0 -14 2 -3 9 20 13 -17 20 -48 9 -13 -5 -40 -5 -60 -2 l-36 7 30 9 c17 4
40 6 53 3 26 -6 26 -7 6 33 -16 33 -14 33 -124 37 -77 3 -86 7 -37 16 32 7 54
6 68 -2 14 -7 24 -7 28 -1 3 5 23 12 43 16 43 8 57 23 31 33 -22 8 -58 44 -58
58 0 5 -26 11 -57 13 -32 2 -58 7 -58 12 0 6 0 13 1 18 0 4 -10 10 -23 13 -13
3 15 5 62 4 47 -1 75 0 63 2 -13 2 -23 11 -23 19 0 16 -4 16 163 -3 26 -3 59
-2 72 1 27 7 34 26 9 26 -8 0 -12 5 -8 11 5 8 -26 9 -112 4 -66 -4 -120 -11
-122 -16 -4 -10 -32 -12 -32 -3 0 4 8 13 18 20 16 12 15 13 -8 22 -27 10 -60
5 -60 -9 0 -11 -77 -12 -84 -1 -3 5 -2 18 1 30 7 27 43 38 72 23 17 -9 22 -8
32 10 10 20 9 21 -9 17 -29 -8 -132 17 -109 27 9 4 32 5 50 1 73 -13 127 -12
127 2 0 7 5 10 10 7 6 -3 10 3 10 14 0 21 -16 37 -22 22 -2 -6 -17 -7 -38 -2
-19 4 -46 4 -60 0 -14 -4 -41 -7 -60 -7 -19 0 -27 2 -17 5 10 3 17 14 17 29 0
17 5 24 20 24 25 0 27 27 3 33 -10 3 3 5 29 6 28 1 48 -4 50 -11z m-332 -115
c0 -10 -4 -14 -8 -8 -4 6 -11 13 -16 18 -5 4 -2 7 7 7 10 0 17 -8 17 -17z m67
-5 c-3 -8 -6 -5 -6 6 -1 11 2 17 5 13 3 -3 4 -12 1 -19z m153 -73 c0 -8 -7
-15 -15 -15 -26 0 -18 20 13 29 1 1 2 -6 2 -14z m-77 -42 c-7 -2 -21 -2 -30 0
-10 3 -4 5 12 5 17 0 24 -2 18 -5z m-16 -19 c-3 -3 -12 -4 -19 -1 -8 3 -5 6 6
6 11 1 17 -2 13 -5z m180 -30 c-3 -3 -12 -4 -19 -1 -8 3 -5 6 6 6 11 1 17 -2
13 -5z m-94 -21 c-13 -2 -33 -2 -45 0 -13 2 -3 4 22 4 25 0 35 -2 23 -4z m-2
-62 c-8 -5 -20 -7 -28 -4 -21 8 -15 13 15 13 20 0 23 -3 13 -9z m150 -1 c16 0
29 -4 29 -10 0 -6 -32 -9 -80 -7 -78 2 -103 11 -57 20 12 3 35 3 51 1 16 -2
41 -4 57 -4z m26 -136 c-3 -3 -12 -4 -19 -1 -8 3 -5 6 6 6 11 1 17 -2 13 -5z
m-24 -61 c-7 -2 -21 -2 -30 0 -10 3 -4 5 12 5 17 0 24 -2 18 -5z m135 -80
c-10 -2 -26 -2 -35 0 -10 3 -2 5 17 5 19 0 27 -2 18 -5z m132 -3 c0 -5 -19
-10 -42 -9 -33 0 -38 2 -23 9 28 12 65 12 65 0z m29 -18 c1 9 5 19 10 22 12 8
41 -4 41 -16 0 -6 -7 -8 -14 -5 -9 4 -13 1 -11 -6 3 -7 -4 -23 -15 -37 -13
-16 -18 -19 -14 -7 4 10 3 17 -2 16 -5 -1 -30 -1 -56 0 -57 1 -65 21 -9 21 32
0 41 4 47 23 l8 22 7 -25 c4 -15 7 -18 8 -8z m-362 12 c-3 -3 -12 -4 -19 -1
-8 3 -5 6 6 6 11 1 17 -2 13 -5z m335 -84 c-3 -20 -1 -22 7 -10 17 24 13 3
-10 -45 -13 -27 -28 -45 -38 -45 -12 1 -11 5 8 20 16 14 19 20 8 20 -23 0 -39
24 -24 39 18 18 -18 35 -73 34 l-45 -1 45 7 c25 4 63 6 86 6 37 0 40 -2 36
-25z m-82 -30 c0 -5 -18 -10 -40 -10 -22 0 -40 5 -40 10 0 6 18 10 40 10 22 0
40 -4 40 -10z m-100 -20 c0 -5 -9 -10 -20 -10 -11 0 -20 5 -20 10 0 6 9 10 20
10 11 0 20 -4 20 -10z m110 -51 c0 -6 -4 -7 -10 -4 -5 3 -10 11 -10 16 0 6 5
7 10 4 6 -3 10 -11 10 -16z m10 -28 c-5 -11 -15 -23 -22 -27 -7 -5 -8 -2 -3 7
21 37 44 55 25 20z m-100 -1 c0 -5 -6 -10 -14 -10 -8 0 -23 -3 -33 -7 -16 -6
-16 -5 -4 10 15 18 51 23 51 7z m-92 -7 c-10 -2 -26 -2 -35 0 -10 3 -2 5 17 5
19 0 27 -2 18 -5z m152 -33 c0 -5 -5 -10 -11 -10 -5 0 -7 5 -4 10 3 6 8 10 11
10 2 0 4 -4 4 -10z m4126 -2 c3 -4 -24 -5 -60 -4 -36 1 -68 5 -71 8 -3 3 24 4
60 3 36 -1 68 -4 71 -7z"/>
<path d="M2768 1443 c6 -2 18 -2 25 0 6 3 1 5 -13 5 -14 0 -19 -2 -12 -5z"/>
<path d="M2378 1263 c7 -3 16 -2 19 1 4 3 -2 6 -13 5 -11 0 -14 -3 -6 -6z"/>
<path d="M2225 1241 c-19 -8 -19 -8 2 -20 15 -7 49 -9 100 -6 56 5 74 3 63 -4
-9 -7 -10 -11 -3 -11 6 0 18 7 27 15 8 8 27 15 43 14 25 0 26 -1 8 -10 -17 -8
-16 -9 7 -4 32 6 88 -4 88 -16 0 -5 -10 -9 -22 -10 -18 0 -15 -5 17 -19 33
-16 54 -18 115 -13 99 7 119 26 24 22 -54 -3 -77 0 -95 13 l-24 17 23 7 c16 5
20 10 12 19 -7 9 -51 11 -162 9 -84 -2 -157 -4 -163 -5 -5 -1 -17 1 -25 4 -8
3 -24 2 -35 -2z"/>
<path d="M2625 1200 c-3 -5 -1 -10 4 -10 6 0 11 5 11 10 0 6 -2 10 -4 10 -3 0
-8 -4 -11 -10z"/>
<path d="M2445 1180 c3 -5 12 -7 20 -3 21 7 19 13 -6 13 -11 0 -18 -4 -14 -10z"/>
<path d="M2495 1131 c-15 -6 -10 -9 25 -12 62 -5 120 0 120 12 0 11 -117 11
-145 0z"/>
<path d="M2680 1130 c-24 -8 -23 -8 8 -9 17 -1 32 4 32 9 0 11 -5 11 -40 0z"/>
<path d="M2305 1100 c3 -5 8 -10 11 -10 2 0 4 5 4 10 0 6 -5 10 -11 10 -5 0
-7 -4 -4 -10z"/>
<path d="M2697 1104 c-8 -8 1 -24 14 -24 5 0 9 7 9 15 0 15 -12 20 -23 9z"/>
<path d="M2400 1050 c0 -23 16 -25 57 -9 l28 12 -25 7 c-44 14 -60 11 -60 -10z"/>
<path d="M2675 1010 c-4 -6 10 -10 34 -10 23 0 41 5 41 10 0 6 -15 10 -34 10
-19 0 -38 -4 -41 -10z"/>
<path d="M2380 940 c20 -5 39 -5 45 1 5 5 -8 9 -35 8 l-45 -1 35 -8z"/>
<path d="M2400 879 c0 -5 5 -7 10 -4 6 3 10 8 10 11 0 2 -4 4 -10 4 -5 0 -10
-5 -10 -11z"/>
<path d="M2640 840 c0 -5 9 -10 20 -10 11 0 20 5 20 10 0 6 -9 10 -20 10 -11
0 -20 -4 -20 -10z"/>
<path d="M2607 750 c-20 -4 -40 -10 -44 -13 -8 -9 60 -9 81 -1 16 6 23 25 9
23 -5 -1 -25 -5 -46 -9z"/>
<path d="M2466 731 c-4 -7 -5 -15 -2 -18 9 -9 19 4 14 18 -4 11 -6 11 -12 0z"/>
<path d="M2665 720 c3 -5 11 -10 16 -10 6 0 7 5 4 10 -3 6 -11 10 -16 10 -6 0
-7 -4 -4 -10z"/>
<path d="M2368 703 c6 -2 18 -2 25 0 6 3 1 5 -13 5 -14 0 -19 -2 -12 -5z"/>
<path d="M2553 673 c9 -2 25 -2 35 0 9 3 1 5 -18 5 -19 0 -27 -2 -17 -5z"/>
<path d="M648 6763 c6 -2 18 -2 25 0 6 3 1 5 -13 5 -14 0 -19 -2 -12 -5z"/>
<path d="M240 5765 c0 -8 7 -15 16 -15 14 0 14 3 4 15 -7 8 -14 15 -16 15 -2
0 -4 -7 -4 -15z"/>
<path d="M480 5605 c0 -11 11 -15 40 -15 29 0 40 4 40 15 0 11 -11 15 -40 15
-29 0 -40 -4 -40 -15z"/>
<path d="M1120 5285 c0 -8 7 -15 16 -15 14 0 14 3 4 15 -7 8 -14 15 -16 15 -2
0 -4 -7 -4 -15z"/>
<path d="M1500 4830 c0 -22 5 -40 10 -40 6 0 10 9 10 19 0 11 5 23 10 26 18
11 11 35 -10 35 -17 0 -20 -7 -20 -40z"/>
<path d="M1950 3950 c0 -22 5 -40 10 -40 6 0 10 18 10 40 0 22 -4 40 -10 40
-5 0 -10 -18 -10 -40z"/>
<path d="M2000 3230 l0 -40 40 0 40 0 0 40 0 40 -40 0 -40 0 0 -40z"/>
<path d="M2100 2750 c0 -33 3 -40 20 -40 17 0 20 7 20 40 0 33 -3 40 -20 40
-17 0 -20 -7 -20 -40z"/>
<path d="M2963 2490 c0 -36 2 -50 4 -32 2 17 2 47 0 65 -2 17 -4 3 -4 -33z"/>
<path d="M2113 2073 c9 -2 25 -2 35 0 9 3 1 5 -18 5 -19 0 -27 -2 -17 -5z"/>
<path d="M2253 2063 c9 -2 25 -2 35 0 9 3 1 5 -18 5 -19 0 -27 -2 -17 -5z"/>
<path d="M2240 2023 c0 -5 18 -8 40 -8 22 0 40 3 40 8 0 4 -18 7 -40 7 -22 0
-40 -3 -40 -7z"/>
<path d="M2258 1933 c12 -2 32 -2 45 0 12 2 2 4 -23 4 -25 0 -35 -2 -22 -4z"/>
<path d="M2530 1770 c0 -6 26 -10 58 -10 40 0 53 3 42 10 -20 13 -100 13 -100
0z"/>
<path d="M2710 1760 c-12 -8 -11 -10 7 -10 12 0 25 5 28 10 8 13 -15 13 -35 0z"/>
<path d="M2770 1760 c0 -5 9 -10 20 -10 11 0 20 5 20 10 0 6 -9 10 -20 10 -11
0 -20 -4 -20 -10z"/>
<path d="M2263 1713 c9 -2 23 -2 30 0 6 3 -1 5 -18 5 -16 0 -22 -2 -12 -5z"/>
<path d="M2145 1600 l-20 -9 20 0 c11 0 27 4 35 9 13 9 13 10 0 9 -8 0 -24 -4
-35 -9z"/>
<path d="M2080 1560 c0 -5 18 -10 40 -10 22 0 40 5 40 10 0 6 -18 10 -40 10
-22 0 -40 -4 -40 -10z"/>
<path d="M3658 1553 c12 -2 30 -2 40 0 9 3 -1 5 -23 4 -22 0 -30 -2 -17 -4z"/>
<path d="M2295 1520 c-3 -5 1 -10 9 -10 9 0 16 5 16 10 0 6 -4 10 -9 10 -6 0
-13 -4 -16 -10z"/>
<path d="M3643 1383 c31 -2 83 -2 115 0 31 2 5 3 -58 3 -63 0 -89 -1 -57 -3z"/>
<path d="M3843 1383 c15 -2 39 -2 55 0 15 2 2 4 -28 4 -30 0 -43 -2 -27 -4z"/>
<path d="M3383 983 c15 -2 39 -2 55 0 15 2 2 4 -28 4 -30 0 -43 -2 -27 -4z"/>
<path d="M3133 913 c9 -2 25 -2 35 0 9 3 1 5 -18 5 -19 0 -27 -2 -17 -5z"/>
<path d="M3128 663 c7 -3 16 -2 19 1 4 3 -2 6 -13 5 -11 0 -14 -3 -6 -6z"/>
<path d="M6018 403 c12 -2 32 -2 45 0 12 2 2 4 -23 4 -25 0 -35 -2 -22 -4z"/>
</g>
</svg>
